ffmpeg started on 2026-01-20 at 14:17:37
Report written to "D:\Convert\FFMetrics\reports\ssim_report-6.txt"
Log level: 32
Command line:
ffmpeg -hide_banner -nostdin -r 24000/1001 -i "F:\\Convert\\files\\[DC] Make Heroine ga Oosugiru - 07_Telegram_HEVC(208).mkv" -r 24000/1001 -i "F:\\Convert\\files\\[DC] Make Heroine ga Oosugiru - 07_Telegram.mp4" -lavfi "[0:v]settb=AVTB,setpts=PTS-STARTPTS,format=pix_fmts=yuv420p10le,fps=24000/1001,scale=1920:1080:flags=lanczos:param0=3:out_range=limited:out_color_matrix=bt709:out_chroma_loc=left,setsar=1/1,setdar=(1920/1080)*(1/1),colorspace=format=yuv420p10:range=tv:primaries=bt709:trc=bt709:space=bt709:fast=0[main];[1:v]settb=AVTB,setpts=PTS-STARTPTS,format=pix_fmts=yuv420p,fps=24000/1001,scale=1920:1080:flags=lanczos:param0=3:out_range=limited:out_color_matrix=bt709:out_chroma_loc=left,setsar=1.000,setdar=1.778,colorspace=format=yuv420p:range=tv:primaries=bt709:trc=bt709:space=bt709:fast=0[ref];[main][ref]ssim=eof_action=endall:stats_file='D\\:/Convert/FFMetrics/logs/ssim_logfile-6.txt'" -f null -
Input #0, matroska,webm, from 'F:\Convert\files\[DC] Make Heroine ga Oosugiru - 07_Telegram_HEVC(208).mkv':
  Metadata:
    COMPATIBLE_BRANDS: isomiso2avc1mp41
    MAJOR_BRAND     : isom
    MINOR_VERSION   : 512
    ENCODER         : Lavf61.7.100
  Duration: 00:24:06.79, start: -0.021000, bitrate: 896 kb/s
  Stream #0:0: Video: hevc (Main 10), yuv420p10le(tv, bt709, progressive), 1920x1080 [SAR 1:1 DAR 16:9], 23.98 fps, 23.98 tbr, 1k tbn (default)
      Metadata:
        HANDLER_NAME    : VideoHandler
        VENDOR_ID       : [0][0][0][0]
        ENCODER         : Lavc61.19.100 libx265
        BPS             : 699310
        DURATION        : 00:24:06.569708333
        NUMBER_OF_FRAMES: 34683
        NUMBER_OF_BYTES : 126450097
        _STATISTICS_WRITING_APP: mkvpropedit v94.0 ('Initiate') 64-bit
        _STATISTICS_WRITING_DATE_UTC: 2026-01-20 09:37:35
        _STATISTICS_TAGS: BPS DURATION NUMBER_OF_FRAMES NUMBER_OF_BYTES
  Stream #0:1: Audio: aac (LC), 48000 Hz, stereo, fltp (default)
      Metadata:
        HANDLER_NAME    : SoundHandler
        VENDOR_ID       : [0][0][0][0]
        ENCODER         : Lavc61.19.100 aac
        BPS             : 193194
        DURATION        : 00:24:06.784000000
        NUMBER_OF_FRAMES: 67819
        NUMBER_OF_BYTES : 34938755
        _STATISTICS_WRITING_APP: mkvpropedit v94.0 ('Initiate') 64-bit
        _STATISTICS_WRITING_DATE_UTC: 2026-01-20 09:37:35
        _STATISTICS_TAGS: BPS DURATION NUMBER_OF_FRAMES NUMBER_OF_BYTES
Input #1, mov,mp4,m4a,3gp,3g2,mj2, from 'F:\Convert\files\[DC] Make Heroine ga Oosugiru - 07_Telegram.mp4':
  Metadata:
    major_brand     : isom
    minor_version   : 512
    compatible_brands: isomiso2avc1mp41
    encoder         : Lavf60.16.100
  Duration: 00:24:06.74, start: 0.000000, bitrate: 3764 kb/s
  Stream #1:0[0x1](und): Video: h264 (High) (avc1 / 0x31637661), yuv420p(tv, bt709, progressive), 1920x1080 [SAR 1:1 DAR 16:9], 3616 kb/s, 23.98 fps, 23.98 tbr, 24k tbn (default)
      Metadata:
        handler_name    : VideoHandler
        vendor_id       : [0][0][0][0]
        encoder         : Lavc60.31.102 h264_qsv
  Stream #1:1[0x2](und): Audio: aac (HE-AACv2) (mp4a / 0x6134706D), 48000 Hz, stereo, fltp, 144 kb/s (default)
      Metadata:
        handler_name    : SoundHandler
        vendor_id       : [0][0][0][0]
Stream mapping:
  Stream #0:0 (hevc) -> settb:default
  Stream #1:0 (h264) -> settb:default
  ssim:default -> Stream #0:0 (wrapped_avframe)
  Stream #0:1 -> #0:1 (aac (native) -> pcm_s16le (native))
Output #0, null, to 'pipe:':
  Metadata:
    COMPATIBLE_BRANDS: isomiso2avc1mp41
    MAJOR_BRAND     : isom
    MINOR_VERSION   : 512
    encoder         : Lavf61.7.100
  Stream #0:0: Video: wrapped_avframe, yuv420p10le(tv, bt709, progressive), 1920x1080 [SAR 1:1 DAR 16:9], q=2-31, 200 kb/s, 23.98 fps, 23.98 tbn
      Metadata:
        encoder         : Lavc61.19.100 wrapped_avframe
  Stream #0:1: Audio: pcm_s16le, 48000 Hz, stereo, s16, 1536 kb/s (default)
      Metadata:
        HANDLER_NAME    : SoundHandler
        VENDOR_ID       : [0][0][0][0]
        _STATISTICS_TAGS: BPS DURATION NUMBER_OF_FRAMES NUMBER_OF_BYTES
        BPS             : 193194
        DURATION        : 00:24:06.784000000
        NUMBER_OF_FRAMES: 67819
        NUMBER_OF_BYTES : 34938755
        _STATISTICS_WRITING_APP: mkvpropedit v94.0 ('Initiate') 64-bit
        _STATISTICS_WRITING_DATE_UTC: 2026-01-20 09:37:35
        encoder         : Lavc61.19.100 pcm_s16le
frame=  137 fps=0.0 q=-0.0 size=N/A time=00:00:05.71 bitrate=N/A speed=11.2x    frame=  338 fps=327 q=-0.0 size=N/A time=00:00:14.09 bitrate=N/A speed=13.7x    frame=  532 fps=345 q=-0.0 size=N/A time=00:00:22.18 bitrate=N/A speed=14.4x    frame=  729 fps=355 q=-0.0 size=N/A time=00:00:30.40 bitrate=N/A speed=14.8x    frame=  911 fps=353 q=-0.0 size=N/A time=00:00:37.99 bitrate=N/A speed=14.7x    frame= 1070 fps=346 q=-0.0 size=N/A time=00:00:44.62 bitrate=N/A speed=14.4x    frame= 1239 fps=343 q=-0.0 size=N/A time=00:00:51.67 bitrate=N/A speed=14.3x    frame= 1414 fps=341 q=-0.0 size=N/A time=00:00:58.97 bitrate=N/A speed=14.2x    frame= 1558 fps=335 q=-0.0 size=N/A time=00:01:04.98 bitrate=N/A speed=  14x    frame= 1722 fps=333 q=-0.0 size=N/A time=00:01:11.82 bitrate=N/A speed=13.9x    frame= 1896 fps=333 q=-0.0 size=N/A time=00:01:19.07 bitrate=N/A speed=13.9x    frame= 2053 fps=331 q=-0.0 size=N/A time=00:01:25.62 bitrate=N/A speed=13.8x    frame= 2182 fps=325 q=-0.0 size=N/A time=00:01:31.00 bitrate=N/A speed=13.6x    frame= 2344 fps=324 q=-0.0 size=N/A time=00:01:37.76 bitrate=N/A speed=13.5x    frame= 2483 fps=320 q=-0.0 size=N/A time=00:01:43.56 bitrate=N/A speed=13.4x    frame= 2637 fps=319 q=-0.0 size=N/A time=00:01:49.98 bitrate=N/A speed=13.3x    frame= 2822 fps=322 q=-0.0 size=N/A time=00:01:57.70 bitrate=N/A speed=13.4x    frame= 3005 fps=323 q=-0.0 size=N/A time=00:02:05.33 bitrate=N/A speed=13.5x    frame= 3207 fps=327 q=-0.0 size=N/A time=00:02:13.75 bitrate=N/A speed=13.6x    frame= 3405 fps=330 q=-0.0 size=N/A time=00:02:22.01 bitrate=N/A speed=13.8x    frame= 3603 fps=333 q=-0.0 size=N/A time=00:02:30.27 bitrate=N/A speed=13.9x    frame= 3809 fps=335 q=-0.0 size=N/A time=00:02:38.86 bitrate=N/A speed=  14x    frame= 4006 fps=337 q=-0.0 size=N/A time=00:02:47.08 bitrate=N/A speed=14.1x    frame= 4212 fps=340 q=-0.0 size=N/A time=00:02:55.67 bitrate=N/A speed=14.2x    frame= 4405 fps=342 q=-0.0 size=N/A time=00:03:03.72 bitrate=N/A speed=14.2x    frame= 4605 fps=343 q=-0.0 size=N/A time=00:03:12.06 bitrate=N/A speed=14.3x    frame= 4802 fps=345 q=-0.0 size=N/A time=00:03:20.28 bitrate=N/A speed=14.4x    frame= 5003 fps=346 q=-0.0 size=N/A time=00:03:28.66 bitrate=N/A speed=14.4x    frame= 5202 fps=347 q=-0.0 size=N/A time=00:03:36.96 bitrate=N/A speed=14.5x    frame= 5399 fps=349 q=-0.0 size=N/A time=00:03:45.18 bitrate=N/A speed=14.5x    frame= 5585 fps=349 q=-0.0 size=N/A time=00:03:52.94 bitrate=N/A speed=14.6x    frame= 5780 fps=350 q=-0.0 size=N/A time=00:04:01.07 bitrate=N/A speed=14.6x    frame= 5973 fps=351 q=-0.0 size=N/A time=00:04:09.12 bitrate=N/A speed=14.6x    frame= 6174 fps=352 q=-0.0 size=N/A time=00:04:17.50 bitrate=N/A speed=14.7x    frame= 6368 fps=353 q=-0.0 size=N/A time=00:04:25.59 bitrate=N/A speed=14.7x    frame= 6565 fps=353 q=-0.0 size=N/A time=00:04:33.81 bitrate=N/A speed=14.7x    frame= 6765 fps=354 q=-0.0 size=N/A time=00:04:42.15 bitrate=N/A speed=14.8x    frame= 6960 fps=355 q=-0.0 size=N/A time=00:04:50.29 bitrate=N/A speed=14.8x    frame= 7148 fps=355 q=-0.0 size=N/A time=00:04:58.13 bitrate=N/A speed=14.8x    frame= 7334 fps=355 q=-0.0 size=N/A time=00:05:05.88 bitrate=N/A speed=14.8x    frame= 7529 fps=356 q=-0.0 size=N/A time=00:05:14.02 bitrate=N/A speed=14.8x    frame= 7717 fps=356 q=-0.0 size=N/A time=00:05:21.86 bitrate=N/A speed=14.9x    frame= 7911 fps=357 q=-0.0 size=N/A time=00:05:29.95 bitrate=N/A speed=14.9x    frame= 8103 fps=357 q=-0.0 size=N/A time=00:05:37.96 bitrate=N/A speed=14.9x    frame= 8292 fps=357 q=-0.0 size=N/A time=00:05:45.84 bitrate=N/A speed=14.9x    frame= 8495 fps=358 q=-0.0 size=N/A time=00:05:54.31 bitrate=N/A speed=14.9x    frame= 8687 fps=358 q=-0.0 size=N/A time=00:06:02.32 bitrate=N/A speed=14.9x    frame= 8881 fps=359 q=-0.0 size=N/A time=00:06:10.41 bitrate=N/A speed=  15x    frame= 9075 fps=359 q=-0.0 size=N/A time=00:06:18.50 bitrate=N/A speed=  15x    frame= 9282 fps=360 q=-0.0 size=N/A time=00:06:27.13 bitrate=N/A speed=  15x    frame= 9471 fps=360 q=-0.0 size=N/A time=00:06:35.01 bitrate=N/A speed=  15x    frame= 9667 fps=360 q=-0.0 size=N/A time=00:06:43.19 bitrate=N/A speed=  15x    frame= 9862 fps=361 q=-0.0 size=N/A time=00:06:51.32 bitrate=N/A speed=  15x    frame=10063 fps=361 q=-0.0 size=N/A time=00:06:59.71 bitrate=N/A speed=15.1x    frame=10257 fps=361 q=-0.0 size=N/A time=00:07:07.80 bitrate=N/A speed=15.1x    frame=10446 fps=361 q=-0.0 size=N/A time=00:07:15.68 bitrate=N/A speed=15.1x    frame=10643 fps=362 q=-0.0 size=N/A time=00:07:23.90 bitrate=N/A speed=15.1x    frame=10833 fps=362 q=-0.0 size=N/A time=00:07:31.82 bitrate=N/A speed=15.1x    frame=11022 fps=362 q=-0.0 size=N/A time=00:07:39.70 bitrate=N/A speed=15.1x    frame=11215 fps=362 q=-0.0 size=N/A time=00:07:47.75 bitrate=N/A speed=15.1x    frame=11404 fps=362 q=-0.0 size=N/A time=00:07:55.64 bitrate=N/A speed=15.1x    frame=11592 fps=362 q=-0.0 size=N/A time=00:08:03.48 bitrate=N/A speed=15.1x    frame=11790 fps=363 q=-0.0 size=N/A time=00:08:11.74 bitrate=N/A speed=15.1x    frame=11980 fps=363 q=-0.0 size=N/A time=00:08:19.66 bitrate=N/A speed=15.1x    frame=12179 fps=363 q=-0.0 size=N/A time=00:08:27.96 bitrate=N/A speed=15.1x    frame=12378 fps=363 q=-0.0 size=N/A time=00:08:36.26 bitrate=N/A speed=15.2x    frame=12567 fps=363 q=-0.0 size=N/A time=00:08:44.14 bitrate=N/A speed=15.2x    frame=12762 fps=363 q=-0.0 size=N/A time=00:08:52.28 bitrate=N/A speed=15.2x    frame=12957 fps=364 q=-0.0 size=N/A time=00:09:00.41 bitrate=N/A speed=15.2x    frame=13152 fps=364 q=-0.0 size=N/A time=00:09:08.54 bitrate=N/A speed=15.2x    frame=13343 fps=364 q=-0.0 size=N/A time=00:09:16.51 bitrate=N/A speed=15.2x    frame=13533 fps=364 q=-0.0 size=N/A time=00:09:24.43 bitrate=N/A speed=15.2x    frame=13727 fps=364 q=-0.0 size=N/A time=00:09:32.53 bitrate=N/A speed=15.2x    frame=13925 fps=364 q=-0.0 size=N/A time=00:09:40.78 bitrate=N/A speed=15.2x    frame=14112 fps=364 q=-0.0 size=N/A time=00:09:48.58 bitrate=N/A speed=15.2x    frame=14307 fps=364 q=-0.0 size=N/A time=00:09:56.72 bitrate=N/A speed=15.2x    frame=14493 fps=364 q=-0.0 size=N/A time=00:10:04.47 bitrate=N/A speed=15.2x    frame=14680 fps=364 q=-0.0 size=N/A time=00:10:12.27 bitrate=N/A speed=15.2x    frame=14875 fps=365 q=-0.0 size=N/A time=00:10:20.41 bitrate=N/A speed=15.2x    frame=15065 fps=365 q=-0.0 size=N/A time=00:10:28.33 bitrate=N/A speed=15.2x    frame=15231 fps=364 q=-0.0 size=N/A time=00:10:35.25 bitrate=N/A speed=15.2x    frame=15430 fps=364 q=-0.0 size=N/A time=00:10:43.55 bitrate=N/A speed=15.2x    frame=15625 fps=365 q=-0.0 size=N/A time=00:10:51.69 bitrate=N/A speed=15.2x    frame=15818 fps=365 q=-0.0 size=N/A time=00:10:59.74 bitrate=N/A speed=15.2x    frame=16020 fps=365 q=-0.0 size=N/A time=00:11:08.16 bitrate=N/A speed=15.2x    frame=16216 fps=365 q=-0.0 size=N/A time=00:11:16.34 bitrate=N/A speed=15.2x    frame=16414 fps=365 q=-0.0 size=N/A time=00:11:24.60 bitrate=N/A speed=15.2x    frame=16606 fps=365 q=-0.0 size=N/A time=00:11:32.60 bitrate=N/A speed=15.2x    frame=16811 fps=366 q=-0.0 size=N/A time=00:11:41.15 bitrate=N/A speed=15.3x    frame=17003 fps=366 q=-0.0 size=N/A time=00:11:49.16 bitrate=N/A speed=15.3x    frame=17202 fps=366 q=-0.0 size=N/A time=00:11:57.46 bitrate=N/A speed=15.3x    frame=17400 fps=366 q=-0.0 size=N/A time=00:12:05.72 bitrate=N/A speed=15.3x    frame=17592 fps=366 q=-0.0 size=N/A time=00:12:13.73 bitrate=N/A speed=15.3x    frame=17781 fps=366 q=-0.0 size=N/A time=00:12:21.61 bitrate=N/A speed=15.3x    frame=17976 fps=366 q=-0.0 size=N/A time=00:12:29.74 bitrate=N/A speed=15.3x    frame=18176 fps=367 q=-0.0 size=N/A time=00:12:38.09 bitrate=N/A speed=15.3x    frame=18357 fps=367 q=-0.0 size=N/A time=00:12:45.63 bitrate=N/A speed=15.3x    frame=18561 fps=367 q=-0.0 size=N/A time=00:12:54.14 bitrate=N/A speed=15.3x    frame=18759 fps=367 q=-0.0 size=N/A time=00:13:02.40 bitrate=N/A speed=15.3x    frame=18953 fps=367 q=-0.0 size=N/A time=00:13:10.49 bitrate=N/A speed=15.3x    frame=19158 fps=367 q=-0.0 size=N/A time=00:13:19.04 bitrate=N/A speed=15.3x    frame=19358 fps=368 q=-0.0 size=N/A time=00:13:27.38 bitrate=N/A speed=15.3x    frame=19554 fps=368 q=-0.0 size=N/A time=00:13:35.56 bitrate=N/A speed=15.3x    frame=19755 fps=368 q=-0.0 size=N/A time=00:13:43.94 bitrate=N/A speed=15.3x    frame=19953 fps=368 q=-0.0 size=N/A time=00:13:52.20 bitrate=N/A speed=15.3x    frame=20146 fps=368 q=-0.0 size=N/A time=00:14:00.25 bitrate=N/A speed=15.4x    frame=20343 fps=368 q=-0.0 size=N/A time=00:14:08.47 bitrate=N/A speed=15.4x    frame=20529 fps=368 q=-0.0 size=N/A time=00:14:16.23 bitrate=N/A speed=15.4x    frame=20713 fps=368 q=-0.0 size=N/A time=00:14:23.90 bitrate=N/A speed=15.3x    frame=20906 fps=368 q=-0.0 size=N/A time=00:14:31.95 bitrate=N/A speed=15.4x    frame=21102 fps=368 q=-0.0 size=N/A time=00:14:40.12 bitrate=N/A speed=15.4x    frame=21285 fps=368 q=-0.0 size=N/A time=00:14:47.76 bitrate=N/A speed=15.4x    frame=21477 fps=368 q=-0.0 size=N/A time=00:14:55.76 bitrate=N/A speed=15.4x    frame=21664 fps=368 q=-0.0 size=N/A time=00:15:03.56 bitrate=N/A speed=15.4x    frame=21863 fps=368 q=-0.0 size=N/A time=00:15:11.86 bitrate=N/A speed=15.4x    frame=22069 fps=368 q=-0.0 size=N/A time=00:15:20.46 bitrate=N/A speed=15.4x    frame=22264 fps=369 q=-0.0 size=N/A time=00:15:28.59 bitrate=N/A speed=15.4x    frame=22455 fps=369 q=-0.0 size=N/A time=00:15:36.56 bitrate=N/A speed=15.4x    frame=22654 fps=369 q=-0.0 size=N/A time=00:15:44.86 bitrate=N/A speed=15.4x    frame=22844 fps=369 q=-0.0 size=N/A time=00:15:52.78 bitrate=N/A speed=15.4x    frame=23034 fps=369 q=-0.0 size=N/A time=00:16:00.70 bitrate=N/A speed=15.4x    frame=23228 fps=369 q=-0.0 size=N/A time=00:16:08.80 bitrate=N/A speed=15.4x    frame=23432 fps=369 q=-0.0 size=N/A time=00:16:17.30 bitrate=N/A speed=15.4x    frame=23630 fps=369 q=-0.0 size=N/A time=00:16:25.56 bitrate=N/A speed=15.4x    frame=23828 fps=369 q=-0.0 size=N/A time=00:16:33.82 bitrate=N/A speed=15.4x    frame=24020 fps=369 q=-0.0 size=N/A time=00:16:41.83 bitrate=N/A speed=15.4x    frame=24223 fps=369 q=-0.0 size=N/A time=00:16:50.30 bitrate=N/A speed=15.4x    frame=24412 fps=369 q=-0.0 size=N/A time=00:16:58.18 bitrate=N/A speed=15.4x    frame=24611 fps=370 q=-0.0 size=N/A time=00:17:06.48 bitrate=N/A speed=15.4x    frame=24807 fps=370 q=-0.0 size=N/A time=00:17:14.65 bitrate=N/A speed=15.4x    frame=25012 fps=370 q=-0.0 size=N/A time=00:17:23.20 bitrate=N/A speed=15.4x    frame=25200 fps=370 q=-0.0 size=N/A time=00:17:31.05 bitrate=N/A speed=15.4x    frame=25404 fps=370 q=-0.0 size=N/A time=00:17:39.55 bitrate=N/A speed=15.4x    frame=25597 fps=370 q=-0.0 size=N/A time=00:17:47.60 bitrate=N/A speed=15.4x    frame=25796 fps=370 q=-0.0 size=N/A time=00:17:55.90 bitrate=N/A speed=15.4x    frame=25996 fps=370 q=-0.0 size=N/A time=00:18:04.24 bitrate=N/A speed=15.4x    frame=26191 fps=370 q=-0.0 size=N/A time=00:18:12.38 bitrate=N/A speed=15.4x    frame=26388 fps=370 q=-0.0 size=N/A time=00:18:20.59 bitrate=N/A speed=15.5x    frame=26586 fps=371 q=-0.0 size=N/A time=00:18:28.85 bitrate=N/A speed=15.5x    frame=26784 fps=371 q=-0.0 size=N/A time=00:18:37.11 bitrate=N/A speed=15.5x    frame=26966 fps=371 q=-0.0 size=N/A time=00:18:44.70 bitrate=N/A speed=15.5x    frame=27145 fps=370 q=-0.0 size=N/A time=00:18:52.17 bitrate=N/A speed=15.4x    frame=27338 fps=370 q=-0.0 size=N/A time=00:19:00.22 bitrate=N/A speed=15.4x    frame=27525 fps=370 q=-0.0 size=N/A time=00:19:08.02 bitrate=N/A speed=15.4x    frame=27714 fps=370 q=-0.0 size=N/A time=00:19:15.90 bitrate=N/A speed=15.4x    frame=27909 fps=370 q=-0.0 size=N/A time=00:19:24.03 bitrate=N/A speed=15.4x    frame=28109 fps=370 q=-0.0 size=N/A time=00:19:32.37 bitrate=N/A speed=15.5x    frame=28302 fps=371 q=-0.0 size=N/A time=00:19:40.42 bitrate=N/A speed=15.5x    frame=28495 fps=371 q=-0.0 size=N/A time=00:19:48.47 bitrate=N/A speed=15.5x    frame=28701 fps=371 q=-0.0 size=N/A time=00:19:57.07 bitrate=N/A speed=15.5x    frame=28869 fps=370 q=-0.0 size=N/A time=00:20:04.07 bitrate=N/A speed=15.4x    frame=29053 fps=370 q=-0.0 size=N/A time=00:20:11.75 bitrate=N/A speed=15.4x    frame=29244 fps=370 q=-0.0 size=N/A time=00:20:19.71 bitrate=N/A speed=15.4x    frame=29429 fps=370 q=-0.0 size=N/A time=00:20:27.43 bitrate=N/A speed=15.4x    frame=29610 fps=370 q=-0.0 size=N/A time=00:20:34.98 bitrate=N/A speed=15.4x    frame=29791 fps=370 q=-0.0 size=N/A time=00:20:42.53 bitrate=N/A speed=15.4x    frame=29980 fps=370 q=-0.0 size=N/A time=00:20:50.41 bitrate=N/A speed=15.4x    frame=30157 fps=370 q=-0.0 size=N/A time=00:20:57.79 bitrate=N/A speed=15.4x    frame=30349 fps=370 q=-0.0 size=N/A time=00:21:05.80 bitrate=N/A speed=15.4x    frame=30542 fps=370 q=-0.0 size=N/A time=00:21:13.85 bitrate=N/A speed=15.4x    frame=30753 fps=370 q=-0.0 size=N/A time=00:21:22.65 bitrate=N/A speed=15.4x    frame=30949 fps=370 q=-0.0 size=N/A time=00:21:30.83 bitrate=N/A speed=15.4x    frame=31145 fps=370 q=-0.0 size=N/A time=00:21:39.00 bitrate=N/A speed=15.4x    frame=31339 fps=370 q=-0.0 size=N/A time=00:21:47.09 bitrate=N/A speed=15.4x    frame=31541 fps=370 q=-0.0 size=N/A time=00:21:55.52 bitrate=N/A speed=15.4x    frame=31721 fps=370 q=-0.0 size=N/A time=00:22:03.03 bitrate=N/A speed=15.4x    frame=31895 fps=370 q=-0.0 size=N/A time=00:22:10.28 bitrate=N/A speed=15.4x    frame=32084 fps=370 q=-0.0 size=N/A time=00:22:18.17 bitrate=N/A speed=15.4x    frame=32280 fps=370 q=-0.0 size=N/A time=00:22:26.34 bitrate=N/A speed=15.4x    frame=32467 fps=370 q=-0.0 size=N/A time=00:22:34.14 bitrate=N/A speed=15.4x    frame=32641 fps=370 q=-0.0 size=N/A time=00:22:41.40 bitrate=N/A speed=15.4x    frame=32796 fps=369 q=-0.0 size=N/A time=00:22:47.86 bitrate=N/A speed=15.4x    frame=32972 fps=369 q=-0.0 size=N/A time=00:22:55.20 bitrate=N/A speed=15.4x    frame=33152 fps=369 q=-0.0 size=N/A time=00:23:02.71 bitrate=N/A speed=15.4x    frame=33346 fps=369 q=-0.0 size=N/A time=00:23:10.80 bitrate=N/A speed=15.4x    frame=33518 fps=369 q=-0.0 size=N/A time=00:23:17.97 bitrate=N/A speed=15.4x    frame=33679 fps=369 q=-0.0 size=N/A time=00:23:24.69 bitrate=N/A speed=15.4x    frame=33823 fps=368 q=-0.0 size=N/A time=00:23:30.70 bitrate=N/A speed=15.4x    frame=33970 fps=368 q=-0.0 size=N/A time=00:23:36.83 bitrate=N/A speed=15.3x    frame=34147 fps=368 q=-0.0 size=N/A time=00:23:44.21 bitrate=N/A speed=15.3x    frame=34310 fps=367 q=-0.0 size=N/A time=00:23:51.01 bitrate=N/A speed=15.3x    frame=34450 fps=367 q=-0.0 size=N/A time=00:23:56.85 bitrate=N/A speed=15.3x    frame=34628 fps=367 q=-0.0 size=N/A time=00:24:04.27 bitrate=N/A speed=15.3x    [Parsed_ssim_16 @ 0000029eeccfd580] SSIM Y:0.993704 (22.009552) U:0.993981 (22.205018) V:0.993611 (21.945359) All:0.993735 (22.030680)
[out#0/null @ 0000029ee56b8a00] video:14903KiB audio:271276KiB subtitle:0KiB other streams:0KiB global headers:0KiB muxing overhead: unknown
frame=34683 fps=367 q=-0.0 Lsize=N/A time=00:24:06.57 bitrate=N/A speed=15.3x    
